<svg width="334" height="54" viewBox="0 0 334 54" fill="none" xmlns="http://www.w3.org/2000/svg">
<g clip-path="url(#clip0_2_396)">
<path d="M9.18359 30.5469L9.67578 27.3125H6.54688V25.2031C6.54688 24.2891 6.96875 23.4453 8.375 23.4453H9.81641V20.668C9.81641 20.668 8.51562 20.4219 7.28516 20.4219C4.71875 20.4219 3.03125 22.0039 3.03125 24.8164V27.3125H0.148438V30.5469H3.03125V38.4219H6.54688V30.5469H9.18359Z" fill="#292F36"/>
</g>
<g clip-path="url(#clip1_2_396)">
<path d="M66.1367 25.7656C66.8398 25.2383 67.4727 24.6055 67.9648 23.8672C67.332 24.1484 66.5938 24.3594 65.8555 24.4297C66.6289 23.9727 67.1914 23.2695 67.4727 22.3906C66.7695 22.8125 65.9609 23.1289 65.1523 23.3047C64.4492 22.5664 63.5 22.1445 62.4453 22.1445C60.4062 22.1445 58.7539 23.7969 58.7539 25.8359C58.7539 26.1172 58.7891 26.3984 58.8594 26.6797C55.8008 26.5039 53.0586 25.0273 51.2305 22.8125C50.9141 23.3398 50.7383 23.9727 50.7383 24.6758C50.7383 25.9414 51.3711 27.0664 52.3906 27.7344C51.793 27.6992 51.1953 27.5586 50.7031 27.2773V27.3125C50.7031 29.1055 51.9688 30.582 53.6562 30.9336C53.375 31.0039 53.0234 31.0742 52.707 31.0742C52.4609 31.0742 52.25 31.0391 52.0039 31.0039C52.4609 32.4805 53.832 33.5352 55.4492 33.5704C54.1836 34.5547 52.6016 35.1524 50.8789 35.1524C50.5625 35.1524 50.2812 35.1172 50 35.0821C51.6172 36.1368 53.5508 36.7344 55.6602 36.7344C62.4453 36.7344 66.1367 31.1445 66.1367 26.2578C66.1367 26.082 66.1367 25.9414 66.1367 25.7656Z" fill="#292F36"/>
</g>
<g clip-path="url(#clip2_2_396)">
<path d="M111.641 37.1719V26.6602H108.371V37.1719H111.641ZM109.988 25.2539C111.043 25.2539 111.887 24.375 111.887 23.3203C111.887 22.3008 111.043 21.457 109.988 21.457C108.969 21.457 108.125 22.3008 108.125 23.3203C108.125 24.375 108.969 25.2539 109.988 25.2539ZM123.84 37.1719H123.875V31.4063C123.875 28.5937 123.242 26.4141 119.938 26.4141C118.356 26.4141 117.301 27.293 116.844 28.1016H116.809V26.6602H113.68V37.1719H116.949V31.9688C116.949 30.5977 117.195 29.2969 118.883 29.2969C120.57 29.2969 120.606 30.8437 120.606 32.0743V37.1719H123.84Z" fill="#292F36"/>
</g>
<g clip-path="url(#clip3_2_396)">
<path d="M172.5 25.7793C170.125 25.7793 168.232 27.709 168.232 30.0469C168.232 32.4219 170.125 34.3145 172.5 34.3145C174.838 34.3145 176.768 32.4219 176.768 30.0469C176.768 27.709 174.838 25.7793 172.5 25.7793ZM172.5 32.8301C170.979 32.8301 169.717 31.6055 169.717 30.0469C169.717 28.5254 170.941 27.3008 172.5 27.3008C174.021 27.3008 175.246 28.5254 175.246 30.0469C175.246 31.6055 174.021 32.8301 172.5 32.8301ZM177.918 25.6309C177.918 25.0742 177.473 24.6289 176.916 24.6289C176.359 24.6289 175.914 25.0742 175.914 25.6309C175.914 26.1875 176.359 26.6328 176.916 26.6328C177.473 26.6328 177.918 26.1875 177.918 25.6309ZM180.738 26.6328C180.664 25.2969 180.367 24.1094 179.402 23.1445C178.438 22.1797 177.25 21.8828 175.914 21.8086C174.541 21.7344 170.422 21.7344 169.049 21.8086C167.713 21.8828 166.562 22.1797 165.561 23.1445C164.596 24.1094 164.299 25.2969 164.225 26.6328C164.15 28.0059 164.15 32.125 164.225 33.4981C164.299 34.834 164.596 35.9844 165.561 36.9864C166.562 37.9512 167.713 38.2481 169.049 38.3223C170.422 38.3965 174.541 38.3965 175.914 38.3223C177.25 38.2481 178.438 37.9512 179.402 36.9864C180.367 35.9844 180.664 34.834 180.738 33.4981C180.812 32.125 180.812 28.0059 180.738 26.6328ZM178.957 34.9454C178.697 35.6875 178.104 36.2442 177.398 36.5411C176.285 36.9864 173.688 36.875 172.5 36.875C171.275 36.875 168.678 36.9864 167.602 36.5411C166.859 36.2442 166.303 35.6875 166.006 34.9454C165.561 33.8692 165.672 31.2715 165.672 30.0469C165.672 28.8594 165.561 26.2617 166.006 25.1484C166.303 24.4434 166.859 23.8867 167.602 23.5898C168.678 23.1445 171.275 23.2559 172.5 23.2559C173.688 23.2559 176.285 23.1445 177.398 23.5898C178.104 23.8496 178.66 24.4434 178.957 25.1484C179.402 26.2617 179.291 28.8594 179.291 30.0469C179.291 31.2715 179.402 33.8692 178.957 34.9454Z" fill="#292F36"/>
</g>
<defs>
<clipPath id="clip0_2_396">
<rect width="10" height="19" fill="white" transform="translate(0 20)"/>
</clipPath>
<clipPath id="clip1_2_396">
<rect width="18" height="15" fill="white" transform="translate(50 22)"/>
</clipPath>
<clipPath id="clip2_2_396">
<rect width="16" height="17" fill="white" transform="translate(108 21)"/>
</clipPath>
<clipPath id="clip3_2_396">
<rect width="17" height="18" fill="white" transform="translate(164 21)"/>
</clipPath>
</defs>
</svg>
